<?xml version="1.0" encoding="utf-8"?>
<svg version="1.1" xmlns="http://www.w3.org/2000/svg" xmlns:xlink="http://www.w3.org/1999/xlink" x="0px" y="0px"
	 viewBox="0 0 541.42 454.96" style="enable-background:new 0 0 541.42 454.96;" xml:space="preserve">
<style type="text/css">
	.st0{fill:#C2B59B;}
	.st1{fill:#58595B;}
	.st2{fill:#FFFFFF;}
</style>
<g transform="rotate(180, 270.71, 227.48)">
	<g id="Floor_Markings">
		<rect x="28.35" y="28.35" class="st0" width="484.72" height="426.61"/>
		<path class="st1" d="M484.72,56.69v398.27H56.69V56.69H484.72 M541.42,0H0v454.96h541.42V0L541.42,0z"/>
	</g>
	<g id="Court_Markings">
		<g id="Boundary_Line">
			<rect x="56.74" y="56.69" class="st2" width="1.42" height="398.27"/>
			<rect x="483.31" y="56.69" class="st2" width="1.42" height="398.27"/>
			<rect x="56.74" y="56.69" class="st2" width="427.99" height="1.42"/>
			<rect x="56.74" y="453.54" class="st2" width="427.99" height="1.42"/>
		</g>
		<g id="_x33__Point_Line">
			<rect x="83.7" y="368.34" class="st2" width="1.42" height="85.18"/>
			<rect x="456.38" y="368.47" class="st2" width="1.42" height="85.04"/>
			<path class="st2" d="M457.8,368.48l-1.41,0.1h-0.01c-2.47-11.52-6.04-22.79-10.67-33.74c-9.56-22.63-23.26-42.96-40.7-60.42
				c-17.44-17.45-37.75-31.16-60.36-40.73c-23.41-9.91-48.28-14.93-73.91-14.93c-25.64,0-50.51,5.02-73.92,14.93
				c-22.61,9.58-42.92,23.28-60.36,40.73c-17.44,17.46-31.13,37.79-40.7,60.42c-4.61,10.91-8.16,22.13-10.63,33.6h-0.01l-1.41-0.09
				c18.56-86.32,95.24-151.02,187.03-151.02C362.57,217.33,439.29,282.1,457.8,368.48z"/>
		</g>
		<g id="Key">
			<g id="Key_Base">
				<path class="st2" d="M338.76,290.39v163.13H202.71V290.39H338.76 M340.18,288.97H201.29v165.97h138.89V288.97L340.18,288.97z"/>
				<path class="st2" d="M321.74,288.97h-1.41c-0.37-27.05-22.48-48.94-49.6-48.94c-27.12,0-49.23,21.89-49.6,48.94h-1.41
					c0.37-27.87,23.06-50.36,51.01-50.36C298.68,238.61,321.37,261.09,321.74,288.97z"/>
			</g>
			<g id="Rebound_Places">
				<rect x="340.18" y="402.45" class="st2" width="2.83" height="1.42"/>
				<rect x="340.18" y="366.98" class="st2" width="2.83" height="11.35"/>
				<rect x="340.18" y="341.45" class="st2" width="2.83" height="1.42"/>
				<rect x="340.18" y="315.92" class="st2" width="2.83" height="1.42"/>
				<rect x="198.46" y="402.45" class="st2" width="2.83" height="1.42"/>
				<rect x="198.46" y="366.99" class="st2" width="2.83" height="11.35"/>
				<rect x="198.46" y="341.45" class="st2" width="2.83" height="1.42"/>
				<rect x="198.46" y="315.92" class="st2" width="2.83" height="1.42"/>
			</g>
		</g>
		<g id="No-Charge_Circle">
			<rect x="306.15" y="408.83" class="st2" width="1.42" height="10.64"/>
			<path class="st2" d="M307.57,408.83h-1.42c-0.37-19.23-16.11-34.76-35.42-34.76c-19.31,0-35.05,15.53-35.42,34.76h-1.42
				c0.37-20.05,16.72-36.18,36.84-36.18C290.85,372.65,307.2,388.79,307.57,408.83z"/>
			<rect x="233.9" y="408.83" class="st2" width="1.42" height="10.64"/>
		</g>
		<rect id="Throw-in_Line" x="52.48" y="215.91" class="st2" width="4.25" height="1.42"/>
		<g id="Centre_Circle_Indicator">
			<path class="st2" d="M270.73,6.69c27.35,0,49.6,22.27,49.6,49.65s-22.25,49.65-49.6,49.65c-27.35,0-49.6-22.27-49.6-49.65
				S243.38,6.69,270.73,6.69 M270.73,5.27c-28.18,0-51.02,22.86-51.02,51.07s22.84,51.07,51.02,51.07s51.02-22.86,51.02-51.07
				S298.91,5.27,270.73,5.27L270.73,5.27z"/>
			<rect x="52.53" y="56.69" class="st2" width="436.41" height="1.41"/>
		</g>
	</g>
</g>
</svg>
