<svg xmlns="http://www.w3.org/2000/svg" xmlns:xlink="http://www.w3.org/1999/xlink" version="1.1" width="1000" height="1000" viewBox="0 0 1000 1000" xml:space="preserve">
<desc>Created with Fabric.js 3.5.0</desc>
<defs>
</defs>
<rect x="0" y="0" width="100%" height="100%" fill="rgba(255,255,255,0)"/>
<g transform="matrix(0 1.3774 -1.3774 0 499.998 499.9965)" id="909315">
<g style="" vector-effect="non-scaling-stroke">
		<g transform="matrix(1 0 0 1 0.9792 -0.8245)">
<path style="stroke: rgb(0,0,0); stroke-width: 2; stroke-dasharray: none; stroke-linecap: butt; stroke-dashoffset: 0; stroke-linejoin: round; stroke-miterlimit: 10; is-custom-font: none; font-file-url: none; fill: rgb(180,95,6); fill-rule: nonzero; opacity: 1;" transform=" translate(-189.9792, -329.1755)" d="M 5.7115116 1.0810163 L 374.24695 1.0810163 L 374.24695 657.27 L 5.7115116 657.27 Z" stroke-linecap="round"/>
</g>
		<g transform="matrix(1 0 0 1 0.4698 -0.8245)">
<path style="stroke: rgb(0,0,0); stroke-width: 2; stroke-dasharray: none; stroke-linecap: butt; stroke-dashoffset: 0; stroke-linejoin: round; stroke-miterlimit: 10; is-custom-font: none; font-file-url: none; fill: none; fill-rule: nonzero; opacity: 1;" transform=" translate(-189.4698, -329.1755)" d="M -5.821522 329.17554 L 384.76117 329.17554" stroke-linecap="round"/>
</g>
		<g transform="matrix(1 0 0 1 0.4698 -0.8245)">
<path style="stroke: rgb(0,0,0); stroke-width: 2; stroke-dasharray: none; stroke-linecap: butt; stroke-dashoffset: 0; stroke-linejoin: round; stroke-miterlimit: 10; is-custom-font: none; font-file-url: none; fill: none; fill-rule: nonzero; opacity: 1;" transform=" translate(-189.4698, -329.1755)" d="M 147.70604 329.1755 L 147.70604 329.1755 C 147.70604 306.11002 166.40431 287.4117 189.46982 287.4117 L 189.46982 287.4117 C 200.54626 287.4117 211.16904 291.81183 219.00127 299.64404 C 226.8335 307.4763 231.2336 318.09906 231.2336 329.1755 L 231.2336 329.1755 C 231.2336 352.241 212.53531 370.93927 189.46982 370.93927 L 189.46982 370.93927 C 166.40431 370.93927 147.70604 352.241 147.70604 329.1755 Z" stroke-linecap="round"/>
</g>
		<g transform="matrix(1 0 0 1 0.3425 -265.2339)">
<path style="stroke: rgb(0,0,0); stroke-width: 2; stroke-dasharray: none; stroke-linecap: butt; stroke-dashoffset: 0; stroke-linejoin: round; stroke-miterlimit: 10; is-custom-font: none; font-file-url: none; fill: none; fill-rule: nonzero; opacity: 1;" transform=" translate(-189.3425, -64.7661)" d="M 135.20079 1.8842069 L 243.48425 1.8842069 L 243.48425 127.64799 L 135.20079 127.64799 Z" stroke-linecap="round"/>
</g>
		<g transform="matrix(1 0 0 1 -55.8596 -224.932)">
<path style="stroke: rgb(0,0,0); stroke-width: 2; stroke-dasharray: none; stroke-linecap: butt; stroke-dashoffset: 0; stroke-linejoin: round; stroke-miterlimit: 10; is-custom-font: none; font-file-url: none; fill: none; fill-rule: nonzero; opacity: 1;" transform=" translate(-133.1404, -105.068)" d="M 135.45538 105.06804 L 130.82545 105.06804" stroke-linecap="round"/>
</g>
		<g transform="matrix(1 0 0 1 56.7993 -224.932)">
<path style="stroke: rgb(0,0,0); stroke-width: 2; stroke-dasharray: none; stroke-linecap: butt; stroke-dashoffset: 0; stroke-linejoin: round; stroke-miterlimit: 10; is-custom-font: none; font-file-url: none; fill: none; fill-rule: nonzero; opacity: 1;" transform=" translate(-245.7992, -105.068)" d="M 248.11417 105.06804 L 243.48425 105.06804" stroke-linecap="round"/>
</g>
		<g transform="matrix(1 0 0 1 56.7993 -249.5383)">
<path style="stroke: rgb(0,0,0); stroke-width: 2; stroke-dasharray: none; stroke-linecap: butt; stroke-dashoffset: 0; stroke-linejoin: round; stroke-miterlimit: 10; is-custom-font: none; font-file-url: none; fill: none; fill-rule: nonzero; opacity: 1;" transform=" translate(-245.7992, -80.4617)" d="M 248.11417 80.46174 L 243.48425 80.46174" stroke-linecap="round"/>
</g>
		<g transform="matrix(1 0 0 1 -55.8596 -249.5383)">
<path style="stroke: rgb(0,0,0); stroke-width: 2; stroke-dasharray: none; stroke-linecap: butt; stroke-dashoffset: 0; stroke-linejoin: round; stroke-miterlimit: 10; is-custom-font: none; font-file-url: none; fill: none; fill-rule: nonzero; opacity: 1;" transform=" translate(-133.1404, -80.4617)" d="M 135.45538 80.46174 L 130.82545 80.46174" stroke-linecap="round"/>
</g>
		<g transform="matrix(1 0 0 1 56.7993 -293.0868)">
<path style="stroke: rgb(0,0,0); stroke-width: 2; stroke-dasharray: none; stroke-linecap: butt; stroke-dashoffset: 0; stroke-linejoin: round; stroke-miterlimit: 10; is-custom-font: none; font-file-url: none; fill: none; fill-rule: nonzero; opacity: 1;" transform=" translate(-245.7992, -36.9132)" d="M 248.11417 36.91318 L 243.48425 36.91318" stroke-linecap="round"/>
</g>
		<g transform="matrix(1 0 0 1 -55.8596 -293.0868)">
<path style="stroke: rgb(0,0,0); stroke-width: 2; stroke-dasharray: none; stroke-linecap: butt; stroke-dashoffset: 0; stroke-linejoin: round; stroke-miterlimit: 10; is-custom-font: none; font-file-url: none; fill: none; fill-rule: nonzero; opacity: 1;" transform=" translate(-133.1404, -36.9132)" d="M 135.45538 36.91318 L 130.82545 36.91318" stroke-linecap="round"/>
</g>
		<g transform="matrix(1 0 0 1 -55.8596 -271.2916)">
<path style="stroke: rgb(0,0,0); stroke-width: 2; stroke-dasharray: none; stroke-linecap: butt; stroke-dashoffset: 0; stroke-linejoin: round; stroke-miterlimit: 10; is-custom-font: none; font-file-url: none; fill: rgb(0,0,0); fill-rule: nonzero; opacity: 1;" transform=" translate(-133.1404, -58.7085)" d="M 131.83333 55.22814 L 134.44751 55.22814 L 134.44751 62.18877 L 131.83333 62.18877 Z" stroke-linecap="round"/>
</g>
		<g transform="matrix(1 0 0 1 56.7992 -271.2916)">
<path style="stroke: rgb(0,0,0); stroke-width: 2; stroke-dasharray: none; stroke-linecap: butt; stroke-dashoffset: 0; stroke-linejoin: round; stroke-miterlimit: 10; is-custom-font: none; font-file-url: none; fill: rgb(0,0,0); fill-rule: nonzero; opacity: 1;" transform=" translate(-245.7992, -58.7085)" d="M 244.49213 55.22814 L 247.1063 55.22814 L 247.1063 62.18877 L 244.49213 62.18877 Z" stroke-linecap="round"/>
</g>
		<g transform="matrix(1 0 0 1 77.8389 -218.3451)">
<path style="stroke: rgb(0,0,0); stroke-width: 2; stroke-dasharray: none; stroke-linecap: butt; stroke-dashoffset: 0; stroke-linejoin: round; stroke-miterlimit: 10; is-custom-font: none; font-file-url: none; fill: none; fill-rule: nonzero; opacity: 1;" transform=" translate(-266.8389, -111.6549)" d="M 344.18497 31.820324 C 345.64508 73.749695 329.9683 114.46586 300.7659 144.58936 C 271.56354 174.71286 231.35368 191.64615 189.3992 191.48843" stroke-linecap="round"/>
</g>
		<g transform="matrix(1 0 0 1 -75.8804 -218.3451)">
<path style="stroke: rgb(0,0,0); stroke-width: 2; stroke-dasharray: none; stroke-linecap: butt; stroke-dashoffset: 0; stroke-linejoin: round; stroke-miterlimit: 10; is-custom-font: none; font-file-url: none; fill: none; fill-rule: nonzero; opacity: 1;" transform=" translate(-113.1196, -111.6549)" d="M 35.77347 31.820324 C 34.313343 73.749695 49.990143 114.46586 79.19252 144.58936 C 108.394905 174.71286 148.60475 191.64615 190.55923 191.48843" stroke-linecap="round"/>
</g>
		<g transform="matrix(1 0 0 1 -153.3174 -311.9389)">
<path style="stroke: rgb(0,0,0); stroke-width: 2; stroke-dasharray: none; stroke-linecap: butt; stroke-dashoffset: 0; stroke-linejoin: round; stroke-miterlimit: 10; is-custom-font: none; font-file-url: none; fill: none; fill-rule: nonzero; opacity: 1;" transform=" translate(-35.6826, -18.0611)" d="M 35.6826 34.297367 L 35.6826 1.8249257" stroke-linecap="round"/>
</g>
		<g transform="matrix(1 0 0 1 155.2784 -311.9389)">
<path style="stroke: rgb(0,0,0); stroke-width: 2; stroke-dasharray: none; stroke-linecap: butt; stroke-dashoffset: 0; stroke-linejoin: round; stroke-miterlimit: 10; is-custom-font: none; font-file-url: none; fill: none; fill-rule: nonzero; opacity: 1;" transform=" translate(-344.2784, -18.0611)" d="M 344.2784 34.297367 L 344.2784 1.8249257" stroke-linecap="round"/>
</g>
		<g transform="matrix(1 0 0 1 0.3367 -182.2781)">
<path style="stroke: rgb(0,0,0); stroke-width: 2; stroke-dasharray: none; stroke-linecap: butt; stroke-dashoffset: 0; stroke-linejoin: round; stroke-miterlimit: 10; is-custom-font: none; font-file-url: none; fill: none; fill-rule: nonzero; opacity: 1;" transform=" translate(-189.3367, -147.7218)" d="M 232.27173 127.11543 L 232.27173 127.11543 C 231.64018 150.484 212.43304 169.05489 189.05647 168.89919 C 165.6799 168.74347 146.72185 149.91835 146.40167 126.54345" stroke-linecap="round"/>
</g>
		<g transform="matrix(1 0 0 1 29.4131 -292.5107)">
<path style="stroke: rgb(7,55,99); stroke-width: 2; stroke-dasharray: none; stroke-linecap: butt; stroke-dashoffset: 0; stroke-linejoin: round; stroke-miterlimit: 10; is-custom-font: none; font-file-url: none; fill: none; fill-rule: nonzero; opacity: 1;" transform=" translate(-218.4131, -37.4893)" d="M 218.41602 37.199272 L 218.41602 37.199272 C 218.41602 37.392616 218.41408 37.585957 218.41022 37.779263" stroke-linecap="round"/>
</g>
		<g transform="matrix(1 0 0 1 0.7021 -303.2443)">
<path style="stroke: rgb(0,0,0); stroke-width: 2; stroke-dasharray: none; stroke-linecap: butt; stroke-dashoffset: 0; stroke-linejoin: round; stroke-miterlimit: 10; is-custom-font: none; font-file-url: none; fill: none; fill-rule: nonzero; opacity: 1;" transform=" translate(-189.7021, -26.7557)" d="M 168.521 26.755701 L 210.8832 26.755701" stroke-linecap="round"/>
</g>
		<g transform="matrix(1 0 0 1 0.3425 -293.2207)">
<path style="stroke: rgb(0,0,0); stroke-width: 2; stroke-dasharray: none; stroke-linecap: butt; stroke-dashoffset: 0; stroke-linejoin: round; stroke-miterlimit: 10; is-custom-font: none; font-file-url: none; fill: none; fill-rule: nonzero; opacity: 1;" transform=" translate(-189.3425, -36.7793)" d="M 183.24803 36.779324 L 183.24803 36.779324 C 183.24803 33.40473 185.97662 30.669086 189.34251 30.669086 L 189.34251 30.669086 C 190.95888 30.669086 192.50903 31.312841 193.65198 32.458733 C 194.7949 33.604626 195.43701 35.158787 195.43701 36.779324 L 195.43701 36.779324 C 195.43701 40.15391 192.70842 42.88956 189.34251 42.88956 L 189.34251 42.88956 C 185.97662 42.88956 183.24803 40.15391 183.24803 36.779324 Z" stroke-linecap="round"/>
</g>
		<g transform="matrix(1 0 0 1 0.3136 -301.3571)">
<path style="stroke: rgb(0,0,0); stroke-width: 2; stroke-dasharray: none; stroke-linecap: butt; stroke-dashoffset: 0; stroke-linejoin: round; stroke-miterlimit: 10; is-custom-font: none; font-file-url: none; fill: none; fill-rule: nonzero; opacity: 1;" transform=" translate(-189.3136, -28.6428)" d="M 189.31364 26.690084 L 189.31364 30.595596" stroke-linecap="round"/>
</g>
		<g transform="matrix(1 0 0 1 -28.5997 -297.2968)">
<path style="stroke: rgb(0,0,0); stroke-width: 2; stroke-dasharray: none; stroke-linecap: butt; stroke-dashoffset: 0; stroke-linejoin: round; stroke-miterlimit: 10; is-custom-font: none; font-file-url: none; fill: none; fill-rule: nonzero; opacity: 1;" transform=" translate(-160.4003, -32.7032)" d="M 160.40027 38.35675 L 160.40027 27.049664" stroke-linecap="round"/>
</g>
		<g transform="matrix(1 0 0 1 29.416 -298.016)">
<path style="stroke: rgb(0,0,0); stroke-width: 2; stroke-dasharray: none; stroke-linecap: butt; stroke-dashoffset: 0; stroke-linejoin: round; stroke-miterlimit: 10; is-custom-font: none; font-file-url: none; fill: none; fill-rule: nonzero; opacity: 1;" transform=" translate(-218.416, -31.984)" d="M 218.41602 37.196644 L 218.41602 26.771448" stroke-linecap="round"/>
</g>
		<g transform="matrix(1 0 0 1 0.4082 -278.2968)">
<path style="stroke: rgb(0,0,0); stroke-width: 2; stroke-dasharray: none; stroke-linecap: butt; stroke-dashoffset: 0; stroke-linejoin: round; stroke-miterlimit: 10; is-custom-font: none; font-file-url: none; fill: none; fill-rule: nonzero; opacity: 1;" transform=" translate(-189.4081, -51.7032)" d="M 218.41602 37.199272 L 218.41602 37.199272 C 218.41602 53.21988 205.42874 66.207146 189.40814 66.207146 C 173.38753 66.207146 160.40027 53.21988 160.40027 37.199272" stroke-linecap="round"/>
</g>
		<g transform="matrix(1 0 0 1 0.3425 264.1)">
<path style="stroke: rgb(0,0,0); stroke-width: 2; stroke-dasharray: none; stroke-linecap: butt; stroke-dashoffset: 0; stroke-linejoin: round; stroke-miterlimit: 10; is-custom-font: none; font-file-url: none; fill: none; fill-rule: nonzero; opacity: 1;" transform=" translate(-189.3425, -594.1)" d="M 135.20079 656.98193 L 243.48425 656.98193 L 243.48425 531.21814 L 135.20079 531.21814 Z" stroke-linecap="round"/>
</g>
		<g transform="matrix(1 0 0 1 -55.8596 223.7981)">
<path style="stroke: rgb(0,0,0); stroke-width: 2; stroke-dasharray: none; stroke-linecap: butt; stroke-dashoffset: 0; stroke-linejoin: round; stroke-miterlimit: 10; is-custom-font: none; font-file-url: none; fill: none; fill-rule: nonzero; opacity: 1;" transform=" translate(-133.1404, -553.7981)" d="M 135.45538 553.7981 L 130.82545 553.7981" stroke-linecap="round"/>
</g>
		<g transform="matrix(1 0 0 1 56.7993 223.7981)">
<path style="stroke: rgb(0,0,0); stroke-width: 2; stroke-dasharray: none; stroke-linecap: butt; stroke-dashoffset: 0; stroke-linejoin: round; stroke-miterlimit: 10; is-custom-font: none; font-file-url: none; fill: none; fill-rule: nonzero; opacity: 1;" transform=" translate(-245.7992, -553.7981)" d="M 248.11417 553.7981 L 243.48425 553.7981" stroke-linecap="round"/>
</g>
		<g transform="matrix(1 0 0 1 56.7993 248.4044)">
<path style="stroke: rgb(0,0,0); stroke-width: 2; stroke-dasharray: none; stroke-linecap: butt; stroke-dashoffset: 0; stroke-linejoin: round; stroke-miterlimit: 10; is-custom-font: none; font-file-url: none; fill: none; fill-rule: nonzero; opacity: 1;" transform=" translate(-245.7992, -578.4044)" d="M 248.11417 578.4044 L 243.48425 578.4044" stroke-linecap="round"/>
</g>
		<g transform="matrix(1 0 0 1 -55.8596 248.4044)">
<path style="stroke: rgb(0,0,0); stroke-width: 2; stroke-dasharray: none; stroke-linecap: butt; stroke-dashoffset: 0; stroke-linejoin: round; stroke-miterlimit: 10; is-custom-font: none; font-file-url: none; fill: none; fill-rule: nonzero; opacity: 1;" transform=" translate(-133.1404, -578.4044)" d="M 135.45538 578.4044 L 130.82545 578.4044" stroke-linecap="round"/>
</g>
		<g transform="matrix(1 0 0 1 56.7993 291.9529)">
<path style="stroke: rgb(0,0,0); stroke-width: 2; stroke-dasharray: none; stroke-linecap: butt; stroke-dashoffset: 0; stroke-linejoin: round; stroke-miterlimit: 10; is-custom-font: none; font-file-url: none; fill: none; fill-rule: nonzero; opacity: 1;" transform=" translate(-245.7992, -621.9529)" d="M 248.11417 621.95294 L 243.48425 621.95294" stroke-linecap="round"/>
</g>
		<g transform="matrix(1 0 0 1 -55.8596 291.9529)">
<path style="stroke: rgb(0,0,0); stroke-width: 2; stroke-dasharray: none; stroke-linecap: butt; stroke-dashoffset: 0; stroke-linejoin: round; stroke-miterlimit: 10; is-custom-font: none; font-file-url: none; fill: none; fill-rule: nonzero; opacity: 1;" transform=" translate(-133.1404, -621.9529)" d="M 135.45538 621.95294 L 130.82545 621.95294" stroke-linecap="round"/>
</g>
		<g transform="matrix(1 0 0 1 -55.8596 270.1577)">
<path style="stroke: rgb(0,0,0); stroke-width: 2; stroke-dasharray: none; stroke-linecap: butt; stroke-dashoffset: 0; stroke-linejoin: round; stroke-miterlimit: 10; is-custom-font: none; font-file-url: none; fill: rgb(0,0,0); fill-rule: nonzero; opacity: 1;" transform=" translate(-133.1404, -600.1577)" d="M 131.83333 603.638 L 134.44751 603.638 L 134.44751 596.67737 L 131.83333 596.67737 Z" stroke-linecap="round"/>
</g>
		<g transform="matrix(1 0 0 1 56.7992 270.1577)">
<path style="stroke: rgb(0,0,0); stroke-width: 2; stroke-dasharray: none; stroke-linecap: butt; stroke-dashoffset: 0; stroke-linejoin: round; stroke-miterlimit: 10; is-custom-font: none; font-file-url: none; fill: rgb(0,0,0); fill-rule: nonzero; opacity: 1;" transform=" translate(-245.7992, -600.1577)" d="M 244.49213 603.638 L 247.1063 603.638 L 247.1063 596.67737 L 244.49213 596.67737 Z" stroke-linecap="round"/>
</g>
		<g transform="matrix(1 0 0 1 77.8389 217.2112)">
<path style="stroke: rgb(0,0,0); stroke-width: 2; stroke-dasharray: none; stroke-linecap: butt; stroke-dashoffset: 0; stroke-linejoin: round; stroke-miterlimit: 10; is-custom-font: none; font-file-url: none; fill: none; fill-rule: nonzero; opacity: 1;" transform=" translate(-266.8389, -547.2112)" d="M 344.18497 627.04584 C 345.64508 585.11646 329.9683 544.40027 300.7659 514.2768 C 271.56354 484.1533 231.35368 467.22 189.3992 467.37772" stroke-linecap="round"/>
</g>
		<g transform="matrix(1 0 0 1 -75.8804 217.2112)">
<path style="stroke: rgb(0,0,0); stroke-width: 2; stroke-dasharray: none; stroke-linecap: butt; stroke-dashoffset: 0; stroke-linejoin: round; stroke-miterlimit: 10; is-custom-font: none; font-file-url: none; fill: none; fill-rule: nonzero; opacity: 1;" transform=" translate(-113.1196, -547.2112)" d="M 35.77347 627.04584 C 34.313343 585.11646 49.990143 544.40027 79.19252 514.2768 C 108.394905 484.1533 148.60475 467.22 190.55923 467.37772" stroke-linecap="round"/>
</g>
		<g transform="matrix(1 0 0 1 -153.3174 310.805)">
<path style="stroke: rgb(0,0,0); stroke-width: 2; stroke-dasharray: none; stroke-linecap: butt; stroke-dashoffset: 0; stroke-linejoin: round; stroke-miterlimit: 10; is-custom-font: none; font-file-url: none; fill: none; fill-rule: nonzero; opacity: 1;" transform=" translate(-35.6826, -640.805)" d="M 35.6826 624.5688 L 35.6826 657.0412" stroke-linecap="round"/>
</g>
		<g transform="matrix(1 0 0 1 155.2784 310.805)">
<path style="stroke: rgb(0,0,0); stroke-width: 2; stroke-dasharray: none; stroke-linecap: butt; stroke-dashoffset: 0; stroke-linejoin: round; stroke-miterlimit: 10; is-custom-font: none; font-file-url: none; fill: none; fill-rule: nonzero; opacity: 1;" transform=" translate(-344.2784, -640.805)" d="M 344.2784 624.5688 L 344.2784 657.0412" stroke-linecap="round"/>
</g>
		<g transform="matrix(1 0 0 1 0.3367 181.1444)">
<path style="stroke: rgb(0,0,0); stroke-width: 2; stroke-dasharray: none; stroke-linecap: butt; stroke-dashoffset: 0; stroke-linejoin: round; stroke-miterlimit: 10; is-custom-font: none; font-file-url: none; fill: none; fill-rule: nonzero; opacity: 1;" transform=" translate(-189.3367, -511.1443)" d="M 232.27173 531.75073 L 232.27173 531.75073 C 231.64018 508.38214 212.43304 489.81125 189.05647 489.96695 C 165.6799 490.12268 146.72185 508.94778 146.40167 532.3227" stroke-linecap="round"/>
</g>
		<g transform="matrix(1 0 0 1 29.4131 291.3769)">
<path style="stroke: rgb(7,55,99); stroke-width: 2; stroke-dasharray: none; stroke-linecap: butt; stroke-dashoffset: 0; stroke-linejoin: round; stroke-miterlimit: 10; is-custom-font: none; font-file-url: none; fill: none; fill-rule: nonzero; opacity: 1;" transform=" translate(-218.4131, -621.3769)" d="M 218.41602 621.6669 L 218.41602 621.6669 C 218.41602 621.4735 218.41408 621.2802 218.41022 621.08685" stroke-linecap="round"/>
</g>
		<g transform="matrix(1 0 0 1 0.7021 302.1104)">
<path style="stroke: rgb(0,0,0); stroke-width: 2; stroke-dasharray: none; stroke-linecap: butt; stroke-dashoffset: 0; stroke-linejoin: round; stroke-miterlimit: 10; is-custom-font: none; font-file-url: none; fill: none; fill-rule: nonzero; opacity: 1;" transform=" translate(-189.7021, -632.1104)" d="M 168.521 632.1104 L 210.8832 632.1104" stroke-linecap="round"/>
</g>
		<g transform="matrix(1 0 0 1 0.3425 292.0869)">
<path style="stroke: rgb(0,0,0); stroke-width: 2; stroke-dasharray: none; stroke-linecap: butt; stroke-dashoffset: 0; stroke-linejoin: round; stroke-miterlimit: 10; is-custom-font: none; font-file-url: none; fill: none; fill-rule: nonzero; opacity: 1;" transform=" translate(-189.3425, -622.0868)" d="M 183.24803 622.0868 L 183.24803 622.0868 C 183.24803 625.4614 185.97662 628.1971 189.34251 628.1971 L 189.34251 628.1971 C 190.95888 628.1971 192.50903 627.5533 193.65198 626.4074 C 194.7949 625.26154 195.43701 623.70734 195.43701 622.0868 L 195.43701 622.0868 C 195.43701 618.7122 192.70842 615.97656 189.34251 615.97656 L 189.34251 615.97656 C 185.97662 615.97656 183.24803 618.7122 183.24803 622.0868 Z" stroke-linecap="round"/>
</g>
		<g transform="matrix(1 0 0 1 0.3136 300.2234)">
<path style="stroke: rgb(0,0,0); stroke-width: 2; stroke-dasharray: none; stroke-linecap: butt; stroke-dashoffset: 0; stroke-linejoin: round; stroke-miterlimit: 10; is-custom-font: none; font-file-url: none; fill: none; fill-rule: nonzero; opacity: 1;" transform=" translate(-189.3136, -630.2233)" d="M 189.31364 632.1761 L 189.31364 628.27057" stroke-linecap="round"/>
</g>
		<g transform="matrix(1 0 0 1 -28.5997 296.1629)">
<path style="stroke: rgb(0,0,0); stroke-width: 2; stroke-dasharray: none; stroke-linecap: butt; stroke-dashoffset: 0; stroke-linejoin: round; stroke-miterlimit: 10; is-custom-font: none; font-file-url: none; fill: none; fill-rule: nonzero; opacity: 1;" transform=" translate(-160.4003, -626.1629)" d="M 160.40027 620.5094 L 160.40027 631.81647" stroke-linecap="round"/>
</g>
		<g transform="matrix(1 0 0 1 29.416 296.8821)">
<path style="stroke: rgb(0,0,0); stroke-width: 2; stroke-dasharray: none; stroke-linecap: butt; stroke-dashoffset: 0; stroke-linejoin: round; stroke-miterlimit: 10; is-custom-font: none; font-file-url: none; fill: none; fill-rule: nonzero; opacity: 1;" transform=" translate(-218.416, -626.8821)" d="M 218.41602 621.6695 L 218.41602 632.09467" stroke-linecap="round"/>
</g>
		<g transform="matrix(1 0 0 1 0.4082 277.163)">
<path style="stroke: rgb(0,0,0); stroke-width: 2; stroke-dasharray: none; stroke-linecap: butt; stroke-dashoffset: 0; stroke-linejoin: round; stroke-miterlimit: 10; is-custom-font: none; font-file-url: none; fill: none; fill-rule: nonzero; opacity: 1;" transform=" translate(-189.4081, -607.163)" d="M 218.41602 621.6669 L 218.41602 621.6669 C 218.41602 605.64624 205.42874 592.659 189.40814 592.659 C 173.38753 592.659 160.40027 605.64624 160.40027 621.6669" stroke-linecap="round"/>
</g>
</g>
</g>
</svg>